# xmcd
#
# Track frame offsets:
#	150
#	23275
#	56045
#	80680
#	115505
#	141238
#	159837
#	182831
#	200248
#	220817
#	246746
#	263831
#	284670
#	308991
#
# Disc length: 4436 seconds
#
# Revision: 2
# Processed by: cddbd v1.4b41PL3 Copyright (c) Steve Scherf et al.
# Submitted via: EZCDDA 4.3.2
#
DISCID=d111520e
DTITLE=Eric Clapton - Pilgrim
DYEAR=1900
DGENRE=
TTITLE0=My father´s eyes
TTITLE1=River of Texas
TTITLE2=Pilgrim
TTITLE3=Broken hearied
TTITLE4=One Chance
TTITLE5=Circus
TTITLE6=Going down slow
TTITLE7=Fall like rain
TTITLE8=Born in time
TTITLE9=Sick and tired
TTITLE10=Needs his woman
TTITLE11=She´s gone
TTITLE12=You were there
TTITLE13=Inside of me
EXTD=
EXTT0=
EXTT1=
EXTT2=
EXTT3=
EXTT4=
EXTT5=
EXTT6=
EXTT7=
EXTT8=
EXTT9=
EXTT10=
EXTT11=
EXTT12=
EXTT13=
PLAYORDER=
